<svg width="32" height="24" viewBox="0 0 32 24" fill="none" xmlns="http://www.w3.org/2000/svg">
<path d="M6.66669 12.7596C6.66669 11.4019 6.66669 10.723 7.03264 10.1262C7.39858 9.52949 8.08584 9.08769 9.46036 8.20407L10.7937 7.34693C13.2781 5.7498 14.5203 4.95123 16 4.95123C17.4797 4.95123 18.7219 5.7498 21.2064 7.34693L22.5397 8.20407C23.9142 9.08769 24.6015 9.52949 24.9674 10.1262C25.3334 10.723 25.3334 11.4019 25.3334 12.7596V17C25.3334 18.8856 25.3334 19.8284 24.5523 20.4142C23.7713 21 22.5142 21 20 21H12C9.48586 21 8.22878 21 7.44774 20.4142C6.66669 19.8284 6.66669 18.8856 6.66669 17V12.7596Z" stroke="#355F97" stroke-width="2"/>
<path d="M19.3334 21V16C19.3334 15.4477 18.8856 15 18.3334 15H13.6667C13.1144 15 12.6667 15.4477 12.6667 16V21" stroke="#355F97" stroke-width="2" stroke-linecap="round" stroke-linejoin="round"/>
</svg>
